<?xml version="1.0" encoding="UTF-8"?>
<svg version="1.1" viewBox="0 0 1460 1188" width="365" height="297" xmlns="http://www.w3.org/2000/svg">
<path transform="translate(429,202)" d="m0 0h18l25 5 16 6 16 9 13 11 10 9 13 13 6 10 4 10 6 27v3l28-9 26-6 24-4 11-1h58l27 4 39 9 45 13 3-9 8-17 10-15 8-10 9-9 18-12 16-8 17-6 21-5 25-4h22l15 2 24 6 14 5 18 10 11 9 10 9 8 10 8 13 8 18 1 13 5 17v17l-3 21-4 15-8 18-8 13-11 14-8 8-14 11-12 9-23 13h-2l9 27 9 25 6 23 5 27 2 18 1 16v28l-2 21-5 27-6 21-6 16-8 16-11 21-16 27-8 12-9 13-12 14-9 10-15 16-15 15-19 14-17 11-26 15-25 12-24 8-31 8-36 6-10 1h-38l-26-2-20-3-36-8-38-10-27-9-25-9-42-13-21-9-17-9-13-10-11-11-8-7-10-10-9-11-13-16-11-16-9-15-9-19-8-21-8-32-3-18-1-13v-30l2-17 7-37 6-21 10-29 22-50 2-5-10-3-25-11-17-9-10-8-9-9-9-14-8-16-5-12-3-13-1-10v-28l3-15 7-16 10-19 11-18 10-13 17-17 18-13 16-9 16-8 21-7 19-4zm1 14-14 2-24 7-17 7-27 16-15 13-10 11-11 15-11 17-11 21-4 13-2 15 1 18 3 16 7 16 7 12 9 11 11 10 15 10 16 7 7 2 21 3 7-10 10-16 7-12-1-4-8-7-11-8-10-9-9-10-8-14-5-12-4-13 1-10 4-13 8-15 10-14 11-9 14-8 16-7 21-6h9l9 2 17 9 13 12 6 9 5 10 2 7 2 26 6-2 20-10 17-9v-16l-3-18-5-13-7-9-14-14-13-10-19-10-21-7-12-2zm518 15-16 2-21 5-19 7-19 10-11 8-10 9-8 9-11 18-5 11-1 4v7l7 6 21 13 14 7h2l15-26 10-15 9-10 9-8 13-5 15-3h15l16 4 12 6 10 9h2l2 4 7 9 8 16 1 4v17l-3 11-5 10-11 12-10 10-8 7-13 11-4 3 2 6 10 14 11 12 7 8 15-8 18-10 12-7 8-8 10-14 9-16 5-11 5-21 1-21 2-4-1-7-2-4-2-23-6-14-10-14-9-10-8-7-17-11-10-5-34-6-10-1zm-521 48-16 4-12 6-13 11-11 13-7 13-2 9v9l4 13 10 19 4 5 14 10 20 10 4-1 8-7 7-6v-2l4-2 10-9 11-9 12-11 6-10 2-10v-24l-7-14-9-9-12-6-7-2zm513 15-13 4-10 6-10 9-9 12-7 15-4 12v5l11 8 17 13 16 13 16 12 4-2 13-12 19-14 7-8 6-11 2-7v-18l-5-12-8-10-8-6-10-6-8-3zm-282 7-41 4-21 5-23 8-23 10-26 13-23 14-14 10-28 24-15 14-13 13-9 12-9 13-13 18-11 18-13 24-9 19-14 34-6 20-7 46-2 25v11l2 24 5 29 5 21 8 16 13 24 12 20 10 13 14 15 17 17 19 13 17 10 21 10 36 12 32 10 51 15 36 8 26 4 22 2h25l35-4 25-5 27-8 22-8 27-13 17-10 15-10 19-14 11-9 15-14 9-10 13-18 14-22 16-26 10-18 8-16 10-25 7-26 2-11 1-11v-66l-1-12-12-41-7-20-12-26-12-23-11-14-12-12-8-7-15-14-11-9-21-16-15-10-23-12-19-12-17-11-20-12-13-6-27-9-14-2-31-4-26-2z" fill="#E1F5B3"/>
<path transform="translate(673,507)" d="m0 0 19 1 16 3 19 6 16 6 19 10 9 7 10 10 9 11 8 11 7 12 10 25 6 20 3 16 3 25v22l-6 31-6 20-10 21-8 12-12 16-7 8-8 7-9 8-17 12-14 8-15 6-16 4-13 1h-9l-20-3-30-7-36-12-15-6-14-9-8-7-9-11-12-17-8-14-7-19-6-20-2-13v-23l3-20 8-29 10-25 8-15 6-12 12-17 9-10 19-13 16-12 18-12 15-7 15-4 7-1zm-3 13-17 4-18 6-19 9-14 10-12 8-13 9-4 4-8 14-6 9-8 15-13 30-7 21-5 20-1 10v11l3 21 8 26 8 16 10 15 11 14 9 9 17 10 14 5 25 6 45 9h20l16-4 16-8 16-10 13-12 14-14 11-14 10-16 7-17 6-19 4-19 1-12v-18l-3-21-7-31-9-27-8-17-4-8 6-2 1-3-12 1-15-10-16-8-21-10-23-9-12-3z" fill="#B8D37E"/>
<path transform="translate(661,581)" d="m0 0 5 1 3 1 9-2 7 1 5 4 9 1 5 2 3-1h7l22 13 1 1-1 7-5 9-8 10-12 13-14 15-6 10-2 5-3 30-2 26v15l3 7 3 14 5 8 7 3 8 1 8-3 4-2 2-4 7-9 4-10 1-17 4-9 2-2 6 1 5 8 2 5v11l-5 15-6 10-6 7-14 10-12 5h-10l-15-6-14-10h-5l-9 6-14 6-13 1h-17l-10-5-9-9-7-14-2-10v-12l2-9 7-5 5 1 2 6 1 22 3 10 6 8 6 4h11l13-3 8-4 10-10 3-5 1-9 1-6 3-6v-8l-1-6-2-25-3-20-4-8-7-9-9-10-17-17-6-9-3-6v-8l4-8 7-6 13-6 13-4zm7 12-14 4-9 7-10 8 1 4 8 10 12 13 14 13 3 1 20-15 12-11 7-10 3-9-16-12-3-3-5 3h-8z" fill="#B8D37D"/>
<path transform="translate(786,567)" d="m0 0 5 2 2 4 3 1 6 11 5 10 4 13 3 5 4 12 5 35 1 14v15l-2 12-3 16-2 13-5 14-4 9h-2l-1 5-13 21-6 7-6 11-14 14-16 12-13 8-16 8-17 5-18 2h-9l-14-2-3-2-12-3-14-3-12-5-10-3v-3l-3 1-2-4-2-1 1-1h9l7 1 7 2 12 3 23 4 2 1 21 1h9l12-3 15-6 6-3 10-7 5-3 1-2 5-3 8-6h3v-3h2l1-3 5-3 7-10 4-4 4-5 1-3 3-3 3-4 3-7 4-9 6-21 7-31v-27l-2-10-1-9-7-30-8-26-5-11-3-8-2-4z" fill="#E1F5B4"/>
<path transform="translate(949,216)" d="m0 0h22l15 2 24 6 14 5 18 10 11 9 10 9 8 10 8 13 8 18 1 13 4 13v3h-3l-6-17-1-3-3-1-1 13-1 2 2 5-1 15-2 16-3 12-2 7-3 9-3 7-6 10-3 6-9 12-4 5-8 7-5 2-9 6-10 4-3-1 16-9 12-7 7-7 10-14 9-16 5-11 5-21 1-21 2-4-1-7-2-4-2-23-6-14-10-14-9-10-7-6-17-11-10-5-34-6-10-1h-19l-16 2-21 5-19 7-19 10-11 8-10 9-9 11-9 15-3 3 3-9 7-11 8-11 6-5 3-5 2-1 1-4 8-5 10-6 7-2 7-3 19-6 10-2 14-3 12-1h28l1 1h6 3l2 2 7 2h9l1-1-2-2 4-1-5-2v-2l-9-1-6-2v-2h-9l-6-1h-26l-30 6-22 7-13 5-2 3-14 7-13 10-12 11-6 8-1 3h-2l-2 7-4 5-5 13-4 9-1 1h-5l-28-8-8-3-21-5-1-1-16-3-10-2-34-4-7-1h-31l-1 1-12 1-1 1-23 2-15 3-16 4-24 8h-7l-3-13-4-17 1-4 4 15 3 14v3l28-9 26-6 24-4 11-1h58l27 4 39 9 45 13 3-9 8-17 10-15 8-10 9-9 18-12 16-8 17-6 21-5z" fill="#B9D37E"/>
<path transform="translate(820,468)" d="m0 0h7l9 3 7 6 4 9 1 5v17l-3 14-4 10-8 10-4 2-9 2-3 2h-7l-7-4-6-8-2-7-1-8v-24l5-13 6-8 6-5z" fill="#E2F6B5"/>
<path transform="translate(498,479)" d="m0 0h14l10 4 6 5 6 9 1 4v25l-5 10-8 9-9 6-8 1-9-4-8-8-6-12-1-6v-21l4-11 5-7z" fill="#E1F5B4"/>
<path transform="translate(745,721)" d="m0 0 3 1 2 3 3 9v10l-2 5-2 6-4 8-2 7-5 6-11 8-12 4h-14l-13-5-11-7-3-3h-6l-12 6-13 6h-13l-2 1h-11l-12-6-5-5-6-9-3-15v-15l2-5h2l1-3 2 1 1 4v9l3 15 3 7 4 6 5 5 4 2 7 1 9-1 5-1 2 1 1-2 4-1 9-7 9-8 11-17 2-1 4 2 3 5 4 16 4 7 5 4 5 2h10l5-2 2 1v-2l6-4 3-4v-2l3-1 4-9 2-7 3-20 2-5z" fill="#E1F5B4"/>
<path transform="translate(419,203)" d="m0 0h10v1l-18 3-18 5-17 7-9 5-15 10-11 8-6 4-3 3h-2v5l13-8 10-6h2v-2l16-8 15-6 17-5 10-2 13-2v2l-25 6-17 6-16 8-20 12-15 13-9 10-11 15-11 17-11 21-4 13-2 15 1 18 3 16 7 16 7 12 9 11 10 9 15 10 4 3-7-1-14-8-11-9-10-14-10-18-5-16-1-7v-36l5-19h2l2-7 2-5 1-3 2-1 1-7 2-1v-4l-7 11-2 5-3 1-8 16-3 8-2 9-1 21 1 12 5 24 2 3 2 6 9 16 8 11 2 5-6-5-9-14-8-16-5-12-3-13-1-10v-28l3-15 7-16 10-19 11-18 10-13 17-17 18-13 16-9 16-8 21-7z" fill="#B8D37D"/>
<path transform="translate(633,598)" d="m0 0h7l-1 4-6 8-1 4 3 6 4 4 5 7 8 7v2l4 2 11 9 3 3h5l18-12 5-5h2l2-4 10-10 4-7 2-5v-7l3-3h6l6 5-2 5-2 2-2 5-9 11h-2l-2 4-20 20-5 8-3 11-3 21-1 13v19l-4 7h2v2h-2l-2 5h-1v-15l-1-1v-8l-2-10-2-9-3-18-3-12-6-8v-2h-2l-7-8-5-5-5-4-7-8-8-10-2-5v-8l6-7z" fill="#E2F6B5"/>
<path transform="translate(566,564)" d="m0 0 3 1 1 5-4 2-2 7-7 10-5 11-4 8-4 11-5 12-5 13-6 17-4 19-1 18 1 21 3 15 3 7 5 12 5 10 7 11 8 10 7 9 7 6 3 2v2l5 2 11 8-3 4-9-3-4-2v-3l-4 1-5-5-8-7-6-7-7-9v-2h-2l-3-6v-2h-2l-1-5-3-1-2-6-2-1-1-7h2l-4-9-3-9-6-11-2-13v-26l3-21 9-27 3-7 3-9 4-10 4-5 2-5 6-9 3-5 3-6 4-1 1-4z" fill="#E2F6B5"/>
<path transform="translate(1030,635)" d="m0 0h1v9l-5 31-6 22-7 19-8 16-11 21-16 27-8 12-9 13-12 14-9 10-15 16-15 15-19 14-17 11-26 15-25 12-24 8-31 8-36 6-10 1h-38l-26-2-19-3v-1h9l8 1h18l6 1h19l2-1 36-2 11-1 7-2 15-2 8-2 8-1 9-3 16-5 10-4 13-5 10-6 6-4 6-3 12-7 10-7 10-6 8-6 9-6 7-7h2v-2h2v-2l7-6 1-2h2l2-4 12-13 7-7 2-3h2l2-4 10-12 8-12 8-13 14-25 9-17 13-29 8-22 3-15 2-17z" fill="#B9D37E"/>
<path transform="translate(994,507)" d="m0 0 3 3 3 9 3 12 3 8 6 22 1 8 1 63-1 19-4 25-5 16-5 15-6 13-5 12-9 17-10 20h-2l-2 6-4 7h-2l-1 6-3 3-6 10h-2l-2 5-6 6-1 3h-2l-2 4-4 5-11 9-14 14-9 7-6 3-3 3h-2v2l-10 5h-2v2l-16 8-25 13-13 5-3-1 29-14 17-10 15-10 19-14 11-9 15-14 11-13 12-17 12-19 16-26 10-18 8-16 10-25 7-26 2-11 1-11v-66l-1-12-12-41-4-12z" fill="#B8D37D"/>
<path transform="translate(670,510)" d="m0 0h14l16 2 17 6 16 6 7 3 9 3 12 6v2l5 2 7 7 6 5 2 5-2 2-7-1-13-8-11-6-17-8-13-6-15-6-8-3-6-2-7-1h-11l-13 2-16 4-18 6-1 1h-7v-4l10-6 18-7 16-3z" fill="#E2F6B5"/>
<path transform="translate(388,476)" d="m0 0 1 3-12 22-9 19-14 34-6 20-7 46-2 25v11l2 24 5 29 5 21 8 16 13 24 12 20 10 13 14 15 16 16 19 13 17 10 21 10 36 12 32 10 34 10 1 2-11-1-2-1v-2l-5 1-8-3-14-4-13-4-12-4-3-2-18-5-8-3-18-7-22-11-11-7-11-6-9-8-7-8-13-13-7-8-9-11-10-15-12-20-1-5h-2l-6-11-6-14-2-10-2-8-3-17-3-18v-45l2-11 3-27 3-18 8-24 11-28 4-9 9-17z" fill="#B9D47E"/>
<path transform="translate(333,460)" d="m0 0 5 1 31 12 2 1-1 6-5 12-5 10-9 20-3 10-4 10-4 13-3 9-5 20-3 16-4 20-2 19v30l4 26 3 11 3 14 1 7 3 9 5 11 3 8 8 16 1 5-4-5-11-23-8-21-8-32-3-18-1-13v-30l2-17 7-37 6-21 10-29 22-50 2-5-10-3-25-11z" fill="#B9D47E"/>
<path transform="translate(1008,231)" d="m0 0 15 1 9 4v2l6 2 16 12 5 5 2 5h2l9 13 5 7 6 12 2 11-2 1v-2l-4-2-5-5-10-16-10-13-8-10-8-6-8-5-11-6-1-2 1-2-7-2z" fill="#E2F6B5"/>
<path transform="translate(429,276)" d="m0 0h12l10 2 11 4 9 6 5 5 6 9 3 11v16l-2 16-6 10-10 10-12 9-11 9-8 7-9 8-2-1 10-10h2v-2l8-7 11-9 14-12 7-9 3-9 1-5v-24l-7-14-8-8-12-6-7-2h-20l-16 4-12 6-13 11-10 12-7 13-2 9v9l4 13 10 19 3 3v2l4 2 14 9 3 3-6-2-6-3-6-5-5-3-1-3h-2v-2h-2v-2h-2l-4-11-5-12-2-6v-13l5-15 7-11 6-7h2v-2l11-9 6-4 12-5z" fill="#B8D37E"/>
<path transform="translate(596,724)" d="m0 0 5 1 2 6 1 22 3 10 6 8 6 4h11l13-3 5-1-2 4-7 2-4-1-1 2-10 1-7-2-5-3-6-6-4-7-3-12-1-8v-8l-2-4-1 2h-2l-1 6v14l3 15 6 9 4 3v2l6 2 6 3h11l2-1h13l8-4 7-3 10-5h6l10 8 8 4 9 3h14l10-3-3 3-10 4h-10l-15-6-14-10h-5l-9 6-14 6-13 1h-17l-10-5-9-9-7-14-2-10v-12l2-9z" fill="#B9D47E"/>
<path transform="translate(942,279)" d="m0 0h15l16 4 12 6 10 9 5 5 7 9 8 16 1 4v17l-3 11-5 10-11 12-11 11-8 7-5 4-2-1 5-5h2l2-4 4-2 2-4 12-11 8-11 4-8 4-13v-11l-3-10-7-11-14-15-15-9-9-2-6-2-12-3-12 1-14 5-12 7-9 9-11 15-4 7-4 5-5 8-1-2 11-19 8-12 9-10 10-9 13-5z" fill="#B9D37E"/>
<path transform="translate(820,468)" d="m0 0h7l9 3 7 6 4 9 1 5v17l-3 14-4 10-8 10-4 2-9 2-3 2h-7l-7-4-6-8-2-7-1-8v-24l5-13 6-8 6-5zm-2 4-11 6-6 7-4 11-1 14 1 19 5 10 4 5 6 3 4-1 4-2v-2l5-1 9-6 6-9 3-7 3-12v-19l-5-10-5-4-5-2z" fill="#B8D37E"/>
<path transform="translate(664,297)" d="m0 0 26 1 47 6 18 3 17 5 15 6 11 6-2 1-13-6-27-9-14-2-31-4-26-2h-27l-41 4-21 5-9 3h-5l5-4 11-3 9-3 8-2 36-4z" fill="#B9D47E"/>
<path transform="translate(498,479)" d="m0 0h14l10 4 6 5-1 2-6-4v-2h-5l-4-2h-9l-9 4-6 7-3 10v23l3 8 6 7 7 5 3 1h7l9-5 7-7 4-6 2-6 1-10h1v13l-5 10-8 9-9 6-8 1-9-4-8-8-6-12-1-6v-21l4-11 5-7z" fill="#B8D37E"/>
<path transform="translate(939,292)" d="m0 0h19l11 4 10 6 3 2v2l4 2 6 5v2h2l6 11 1 6v12l-1 9-2 6h-2l-2 5-5 6v-3l6-11 2-7v-18l-5-12-8-10-10-7-12-6-3-1h-19l-13 4-10 6-10 9-9 13-6 12-1-3 8-17 12-14 8-6 12-5z" fill="#B9D37E"/>
<path transform="translate(742,719)" d="m0 0 6 1 5 8 2 5v11l-5 15-5 9h-2l3-10 3-4 1-7h2v-13l-4-10v-2h-6l-2 10-2 17-7 15h-3l1 3-3 1-1 3-4 3h-2v2l-5 1-2 1h-10l-6-3-5-4-4-7-1-7 2-2 3 10 4 6 7 3 8 1 8-3 4-2 2-4 7-9 4-10 1-17 4-9z" fill="#BBD681"/>
<path transform="translate(434,260)" d="m0 0h9l9 2 17 9 13 12 6 8-1 2-5-5v-2h-2l-4-5-5-3v-2l-5-2v-2l-4-1-8-4-1-2-12-2h-8l-18 5-14 6-14 8-12 11-9 10-6 10h-2v2l-2-1 9-15 8-10 10-8 14-8 16-7z" fill="#BAD480"/>
<path transform="translate(371,800)" d="m0 0h2l8 10 6 7 7 8 9 9 8 7 5 5 9 8 13 9 16 8 11 5 17 6 15 5 16 5 8 3-3 1-32-10-24-8-25-12-12-8-12-11-16-15-7-7-9-11-10-13z" fill="#BBD581"/>
<path transform="translate(284,360)" d="m0 0h1l2 18 3 12 9 19 8 11 9 10 13 10 12 7-4 1-14-7-10-8-5-5-7-9-9-16-3-5-5-16-1-7v-11z" fill="#B9D47F"/>
<path transform="translate(548,273)" d="m0 0 2 2 6 27v3l28-9 26-6 24-4 11-1h9l-1 3-12 1-1 1-23 2-15 3-16 4-24 8h-7l-3-13-4-17z" fill="#BAD580"/>
<path transform="translate(613,908)" d="m0 0 9 1 26 5 24 3 12 1h25l19-2h7l-4 2-24 4-3 1-27-1-33-5-9-3-7-1-11-2z" fill="#BAD580"/>
<path transform="translate(746,805)" d="m0 0m-1 1m-1 1 1 3-9 6-10 7-20 8-10 2h-17l-13-1-12-3-18-3-13-3-1-3 13 2 40 8h20l16-4 16-8 16-10z" fill="#BAD47F"/>
<path transform="translate(1091,329)" d="m0 0 2 2v14l-3 21-4 15-8 18-8 13-11 14-8 8-9 7-2-1 7-7 8-7 8-10 7-10 6-11 4-8h2l1-8 4-13 3-16 1-18z" fill="#BDD783"/>
<path transform="translate(482,868)" d="m0 0 11 3 36 12 54 16 1 2-11-1-2-1v-2l-5 1-8-3-14-4-13-4-12-4-3-2-18-5-16-6z" fill="#BAD580"/>
<path transform="translate(846,492)" d="m0 0h2v16l-3 14-4 10-8 10-4 2-9 2-3 2-4-1 5-3h2v-2l10-5 5-4 7-14 3-12z" fill="#B8D37D"/>
<path transform="translate(967,296)" d="m0 0 6 2 9 6v2l4 2 6 5v2h2l6 11 1 6v12l-1 9-2 6h-2l-2 5-5 6v-3l6-11 2-7v-18l-5-12-8-10-10-7-7-4z" fill="#B8D37D"/>
<path transform="translate(430,202)" d="m0 0h17l25 5 16 6 16 9 13 11 10 9h-3l-4-3v-2l-5-2-9-8-14-9-7-3-3-2-10-2-4-2-10-2-7-2-21-2z" fill="#B8D37D"/>
<path transform="translate(745,821)" d="m0 0h2l-1 5-16 9-15 6-16 4-13 1h-9l-9-1-2-2h12l19-1 10-2 12-3 4-3 4-2 3-2 5-1 1-2 5-1 2-3z" fill="#BDD784"/>
<path transform="translate(366,329)" d="m0 0h1v15l4 13 10 19 3 3v2l4 2 14 9 3 3-6-2-6-3-6-5-5-3-1-3h-2v-2h-2v-2h-2l-4-11-5-12-2-6v-13z" fill="#B8D37D"/>
<path transform="translate(434,260)" d="m0 0h9l9 2 17 9 13 12 6 8-1 2-5-5v-2h-2l-4-5-5-3v-2l-5-2v-2l-4-1-8-4-1-2-12-2h-8l-11 2v-2z" fill="#B9D47E"/>
<path transform="translate(800,485)" d="m0 0 1 3-3 8-1 14 1 19 5 10 3 3v2l6 2 1 2-6-1-6-5-5-9-2-12v-24l4-10z" fill="#B9D37E"/>
<path transform="translate(1015,345)" d="m0 0 1 4-3 11-5 10-11 12-11 11-8 7-5 4-2-1 5-5h2l2-4 4-2 2-4 12-11 8-11 4-8 4-12z" fill="#BAD580"/>
<path transform="translate(815,737)" d="m0 0 1 3-9 20-10 16-12 16-4 3 2-5 6-9 7-10 9-15 1-3h2l3-9 3-6z" fill="#BAD47F"/>
<path transform="translate(271,366)" d="m0 0 1 3h2l5 26 3 7 2 6 9 16 8 11 2 5-6-5-9-14-8-16-5-12-3-13z" fill="#BBD581"/>
<path transform="translate(742,719)" d="m0 0 6 1 5 8 2 5v11l-5 15-5 9h-2l3-10 3-4 1-7h2v-13l-4-10v-2l-8 1z" fill="#BBD581"/>
<path transform="translate(672,772)" d="m0 0 4 2 8 6 8 4 9 3h14l10-3-3 3-10 4h-10l-15-6-14-10-3-2z" fill="#BCD682"/>
<path transform="translate(1076,398)" d="m0 0 1 3-7 11-11 14-8 8-9 7-2-1 7-7 8-7 8-10 7-10 4-6z" fill="#BBD681"/>
<path transform="translate(741,722)" d="m0 0 1 2-2 8-2 17-7 15-4-1 6-10 2-6 1-17 3-6z" fill="#B8D37D"/>
<path transform="translate(556,323)" d="m0 0 4 1-36 18-10 6-3-1 11-7 15-8 15-7z" fill="#C2DB8B"/>
<path transform="translate(429,276)" d="m0 0h12l10 2 3 3-7-1h-20l-17 4 1-3 8-3z" fill="#BBD682"/>
<path transform="translate(430,202)" d="m0 0h17l25 5 10 4v1h-8l-6-3-10-2-7-2-21-2z" fill="#B9D47E"/>
<path transform="translate(742,306)" d="m0 0h9l21 6 15 6 11 6-2 1-13-6-27-9-14-2z" fill="#B8D37D"/>
<path transform="translate(404,421)" d="m0 0 1 3-2 5-5 9-9 12-5 6-1-2 12-19z" fill="#BAD580"/>
<path transform="translate(771,802)" d="m0 0 2 2-7 7-15 11h-2l1-4 4-1v-3l8-6z" fill="#BBD581"/>
<path transform="translate(422,426)" d="m0 0 1 2-9 13-13 18-9 14-1-2 7-12 7-10 6-8 8-11z" fill="#BDD784"/>
<path transform="translate(1070,368)" d="m0 0 3 1-2 7-3 9-3 7-6 10-3 1 2-5 9-19z" fill="#BAD580"/>
<path transform="translate(332,727)" d="m0 0 3 1 3 10 5 13 11 22-1 3-10-19-10-24z" fill="#BBD581"/>
<path transform="translate(701,841)" d="m0 0 2 1v2l-16 2h-10l-9-1-2-2h12l19-1z" fill="#BFD986"/>
<path transform="translate(649,769)" d="m0 0m-1 1m-3 1h3l-2 4-7 2-4-1-1 2-10 1-7-2v-2h13l13-3z" fill="#B9D37E"/>
<path transform="translate(281,406)" d="m0 0 5 5 6 12 11 15-1 2-7-8-10-16-4-8z" fill="#B9D47F"/>
<path transform="translate(511,245)" d="m0 0 4 2 13 13 5 6 5 14v5l-2-4-5-13-7-9-13-13z" fill="#BDD783"/>
<path transform="translate(1030,635)" d="m0 0h1v9l-5 31-2 8-2-2 4-18 2-17z" fill="#BDD784"/>
<path transform="translate(419,264)" d="m0 0h3v2l-17 6-15 8-2-1 5-4 17-8z" fill="#B8D37D"/>
<path transform="translate(434,260)" d="m0 0h9l9 2v2h-8l-3-1h-8l-11 2v-2z" fill="#BCD683"/>
<path transform="translate(468,379)" d="m0 0 2 1-15 14-8 7-2 1 2-4 5-5 2-3h2v-2z" fill="#BED885"/>
<path transform="translate(796,529)" d="m0 0h2l5 10 3 3v2l6 2 1 2-6-1-6-5-5-9z" fill="#BBD681"/>
<path transform="translate(419,203)" d="m0 0h10v1l-18 3-15 4-3-1 7-3z" fill="#B9D47E"/>
<path transform="translate(450,374)" d="m0 0m-1 1m-1 1m-2 1 2 1-4 5-8 7-9 8-2-1 10-10h2v-2l8-7z" fill="#BDD784"/>
<path transform="translate(697,294)" d="m0 0 1 2 1-2h10l9 2v2l-5 1-3-1-15-1 2-1z" fill="#FDFDFC"/>
<path transform="translate(940,292)" d="m0 0h18l8 3 1 2-5-1-3-1h-20z" fill="#BED885"/>
<path transform="translate(998,349)" d="m0 0 2 1-2 9h-2l-2 5-5 6v-3l6-11z" fill="#BBD581"/>
<path transform="translate(889,317)" d="m0 0 1 2-4 7-4 5-5 8-1-2 11-19z" fill="#BCD682"/>
<path transform="translate(727,764)" d="m0 0 2 3-3 1-1 3-4 3h-2v2l-5-1 5-4 3-1 2-4z" fill="#BCD683"/>
<path transform="translate(662,291)" d="m0 0 14 1-1 2-8 1-12-1-1-2z" fill="#FEFEFE"/>
<path transform="translate(724,820)" d="m0 0m-2 1h2l-1 3-17 7-4-1 9-4z" fill="#B8D37E"/>
<path transform="translate(979,377)" d="m0 0 2 1-15 12-4 3-2-1 9-8z" fill="#B9D37E"/>
<path transform="translate(842,282)" d="m0 0 1 2-9 15-3 3 3-9 6-9z" fill="#BAD47F"/>
<path transform="translate(613,908)" d="m0 0 9 1 14 3-3 2-16-3z" fill="#BED885"/>
<path transform="translate(837,884)" d="m0 0m-2 1 2 1-3 3-15 6-3-1z" fill="#BED885"/>
<path transform="translate(745,821)" d="m0 0h2l-1 5-12 6 2-5 5-1 2-3z" fill="#BED885"/>
<path transform="translate(332,727)" d="m0 0 3 1 3 10 2 5-1 3-5-10z" fill="#BCD682"/>
<path transform="translate(756,549)" d="m0 0 4 1 14 8 3 1v2l-5-1-16-10z" fill="#BAD47F"/>
<path transform="translate(649,769)" d="m0 0m-1 1m-3 1h3l-2 4-7 2-3-1v-2z" fill="#BCD683"/>
<path transform="translate(815,737)" d="m0 0 1 3-5 12-2-1 1-6z" fill="#BBD581"/>
<path transform="translate(750,754)" d="m0 0 1 3-6 11h-2l3-10z" fill="#BED885"/>
<path transform="translate(1091,353)" d="m0 0 1 2-3 15-2-1 2-14z" fill="#BFD986"/>
<path transform="translate(596,308)" d="m0 0m-2 0 2 1v2l-9 3h-5l5-4z" fill="#BFD986"/>
<path transform="translate(960,415)" d="m0 0h2l9 14-1 2-6-7-4-7z" fill="#BCD783"/>
<path transform="translate(556,323)" d="m0 0 4 1-14 7-4-1 10-5z" fill="#C0DA88"/>
<path transform="translate(701,829)" d="m0 0 2 1-1 2-6 1h-9v-2z" fill="#BAD580"/>
<path transform="translate(466,861)" d="m0 0 6 2 10 5-2 1-13-5z" fill="#BAD580"/>
<path transform="translate(714,838)" d="m0 0h3v2l-13 4v-3z" fill="#BCD682"/>
<path transform="translate(742,719)" d="m0 0 6 1 4 7h-2l-2-5-8 1z" fill="#BFD886"/>
<path transform="translate(570,896)" d="m0 0 13 3 1 2-11-1-3-3z" fill="#BCD682"/>
<path transform="translate(836,270)" d="m0 0v3l-3 6h-2l-1 3h-2l2-5 4-6z" fill="#BED885"/>
<path transform="translate(534,513)" d="m0 0h1v13l-2 5-2-2 2-6z" fill="#BBD581"/>
</svg>
